<?xml version="1.0" encoding="UTF-8"?>
<svg xmlns="http://www.w3.org/2000/svg" xmlns:xlink="http://www.w3.org/1999/xlink"
     width="79.78947368421052" height="243.99999999999997" viewBox="0 0 79.78947368421052 243.99999999999997">
<defs>
</defs>
<g transform="translate(16.210526315789473, 2)">
<path d="M0,18.94736842105263 A23.684210526315788,18.94736842105263,0,0,1,47.368421052631575,18.94736842105263 L47.368421052631575,18.94736842105263 Z" fill="white" stroke="black" stroke-width="2" />
</g>
<g transform="translate(20.94736842105263, 20.94736842105263)">
<circle cx="18.94736842105263" cy="18.94736842105263" r="18.94736842105263" fill="white" stroke="black" stroke-width="2" />
</g>
<g transform="translate(2.0, 58.84210526315789)">
<rect x="0" y="0" width="75.78947368421052" height="12.631578947368421" fill="white" stroke="black" stroke-width="2" />
</g>
<g transform="translate(2.0, 71.47368421052632)">
<path d="M11.368421052631579,75.78947368421052 L64.42105263157895,75.78947368421052 L64.42105263157895,63.1578947368421 L75.78947368421052,63.1578947368421 L75.78947368421052,25.26315789473684 L56.84210526315789,25.26315789473684 L56.84210526315789,0 L18.94736842105263,0 L18.94736842105263,25.26315789473684 L0,25.26315789473684 L0,63.1578947368421 L11.368421052631579,63.1578947368421 Z" fill="white" stroke="black" stroke-width="2" />
</g>
<g transform="translate(14.631578947368421, 147.26315789473682)">
<path d="M0,75.78947368421052 L50.52631578947368,75.78947368421052 L25.26315789473684,0 Z" fill="white" stroke="black" stroke-width="2" />
</g>
<g transform="translate(2.0, 223.05263157894734)">
<path d="M0,18.94736842105263 L75.78947368421052,18.94736842105263 L37.89473684210526,0 Z" fill="white" stroke="black" stroke-width="2" />
</g>
</svg>