<?xml version="1.0" encoding="UTF-8"?>
<svg xmlns="http://www.w3.org/2000/svg" xmlns:xlink="http://www.w3.org/1999/xlink"
     width="79.78947368421052" height="243.99999999999997" viewBox="0 0 79.78947368421052 243.99999999999997">
<defs>
</defs>
<g transform="translate(19.052631578947366, 2)">
<g>
<path d="M6.252631578947368,0 L35.43157894736842,0 L35.43157894736842,9.473684210526315 L41.68421052631579,9.473684210526315 L41.68421052631579,18.94736842105263 L0,18.94736842105263 L0,9.473684210526315 L6.252631578947368,9.473684210526315 Z" fill="white" stroke="black" stroke-width="2" />
</g>
</g>
<g transform="translate(20.94736842105263, 20.94736842105263)">
<circle cx="18.94736842105263" cy="18.94736842105263" r="18.94736842105263" fill="white" stroke="black" stroke-width="2" />
</g>
<g transform="translate(2.0, 58.84210526315789)">
<rect x="0" y="0" width="75.78947368421052" height="12.631578947368421" fill="white" stroke="black" stroke-width="2" />
</g>
<g transform="translate(8.960257787325457, 71.47368421052632)">
<path d="M23.495115829489873,14.828375286041194 A9.280343716433942,9.280343716433942,0,1,1,38.37384228006974,14.828375286041194 A30.934479054779803,30.934479054779803,0,1,1,23.495115829489873,14.828375286041194 Z" fill="white" stroke="black" stroke-width="2" />
</g>
<g transform="translate(19.79095455681322, 147.26315789473682)">
<rect x="0" y="0" width="40.20756457058409" height="75.78947368421052" rx="20.103782285292045" ry="20.103782285292045" fill="white" stroke="black" stroke-width="2" />
</g>
<g transform="translate(16.210526315789473, 223.05263157894734)">
<path d="M0,18.94736842105263 A23.684210526315788,18.94736842105263,0,0,1,47.368421052631575,18.94736842105263 L47.368421052631575,18.94736842105263 Z" fill="white" stroke="black" stroke-width="2" />
</g>
</svg>