<?xml version="1.0" encoding="UTF-8"?>
<svg xmlns="http://www.w3.org/2000/svg" xmlns:xlink="http://www.w3.org/1999/xlink"
     width="92.42105263157895" height="243.99999999999997" viewBox="0 0 92.42105263157895 243.99999999999997">
<defs>
</defs>
<g transform="translate(22.842105263157894, 2)">
<g transform="scale(1.121212121212121,1)">
<rect x="0" y="0" width="41.68421052631579" height="18.94736842105263" fill="white" stroke="black" stroke-width="2" vector-effect="non-scaling-stroke" />
</g>
</g>
<g transform="translate(27.263157894736842, 20.94736842105263)">
<circle cx="18.94736842105263" cy="18.94736842105263" r="18.94736842105263" fill="white" stroke="black" stroke-width="2" vector-effect="non-scaling-stroke" />
</g>
<g transform="translate(2.0, 58.84210526315789)">
<g transform="scale(3.1818181818181817,1)">
<rect x="0" y="0" width="27.789473684210527" height="12.631578947368421" fill="white" stroke="black" stroke-width="2" vector-effect="non-scaling-stroke" />
</g>
</g>
<g transform="translate(11.473684210526322, 71.47368421052632)">
<g transform="scale(0.9166666666666666,1)">
<path d="M11.368421052631579,75.78947368421052 L64.42105263157895,75.78947368421052 L64.42105263157895,63.1578947368421 L75.78947368421052,63.1578947368421 L75.78947368421052,25.26315789473684 L56.84210526315789,25.26315789473684 L56.84210526315789,0 L18.94736842105263,0 L18.94736842105263,25.26315789473684 L0,25.26315789473684 L0,63.1578947368421 L11.368421052631579,63.1578947368421 Z" fill="white" stroke="black" stroke-width="2" vector-effect="non-scaling-stroke" />
</g>
</g>
<g transform="translate(22.842105263157894, 147.26315789473682)">
<g transform="scale(1.1623892818282235,1)">
<rect x="0" y="0" width="40.20756457058409" height="75.78947368421052" rx="20.103782285292045" ry="20.103782285292045" fill="white" stroke="black" stroke-width="2" vector-effect="non-scaling-stroke" />
</g>
</g>
<g transform="translate(14.631578947368421, 223.05263157894734)">
<g transform="scale(0.8333333333333334,1)">
<path d="M0,18.94736842105263 L75.78947368421052,18.94736842105263 L64.42105263157895,0 L11.368421052631579,0 Z" fill="white" stroke="black" stroke-width="2" vector-effect="non-scaling-stroke" />
</g>
</g>
</svg>