<?xml version="1.0" encoding="UTF-8"?>
<svg xmlns="http://www.w3.org/2000/svg" xmlns:xlink="http://www.w3.org/1999/xlink"
     width="79.78947368421052" height="243.99999999999997" viewBox="0 0 79.78947368421052 243.99999999999997">
<defs>
</defs>
<g transform="translate(16.52631578947368, 2)">
<g transform="scale(0.6166666666666667,1)">
<path d="M0,18.94736842105263 L75.78947368421052,18.94736842105263 L75.78947368421052,15.157894736842104 L37.89473684210526,0 L0,15.157894736842104 Z" fill="white" stroke="black" stroke-width="2" vector-effect="non-scaling-stroke" />
</g>
</g>
<g transform="translate(20.94736842105263, 20.94736842105263)">
<circle cx="18.94736842105263" cy="18.94736842105263" r="18.94736842105263" fill="white" stroke="black" stroke-width="2" vector-effect="non-scaling-stroke" />
</g>
<g transform="translate(2.0, 58.84210526315789)">
<g transform="scale(2.727272727272727,1)">
<rect x="0" y="0" width="27.789473684210527" height="12.631578947368421" fill="white" stroke="black" stroke-width="2" vector-effect="non-scaling-stroke" />
</g>
</g>
<g transform="translate(8.315789473684209, 71.47368421052632)">
<g transform="scale(1.1904761904761907,1)">
<path d="M0,0 A60.63157894736842,60.63157894736842,0,0,0,18.568421052631578,37.89473684210526 A60.63157894736842,60.63157894736842,0,0,0,0,75.78947368421052 L53.05263157894736,75.78947368421052 A60.63157894736842,60.63157894736842,0,0,0,34.484210526315785,37.89473684210526 A60.63157894736842,60.63157894736842,0,0,0,53.05263157894736,0 L0,0 Z" stroke="black" stroke-width="2" fill="none" vector-effect="non-scaling-stroke" />
</g>
</g>
<g transform="translate(14.631578947368421, 147.26315789473682)">
<path d="M0,75.78947368421052 L50.52631578947368,75.78947368421052 L25.26315789473684,0 Z" fill="white" stroke="black" stroke-width="2" vector-effect="non-scaling-stroke" />
</g>
<g transform="translate(8.315789473684209, 223.05263157894734)">
<g transform="scale(1.3333333333333335,1)">
<rect x="0" y="0" width="47.368421052631575" height="18.94736842105263" rx="9.473684210526315" ry="9.473684210526315" fill="white" stroke="black" stroke-width="2" vector-effect="non-scaling-stroke" />
</g>
</g>
</svg>