<?xml version="1.0" encoding="UTF-8"?>
<svg xmlns="http://www.w3.org/2000/svg" xmlns:xlink="http://www.w3.org/1999/xlink"
     width="79.78947368421052" height="243.99999999999997" viewBox="0 0 79.78947368421052 243.99999999999997">
<defs>
</defs>
<g transform="translate(19.052631578947366, 2)">
<rect x="0" y="0" width="41.68421052631579" height="18.94736842105263" fill="white" stroke="black" stroke-width="2" />
</g>
<g transform="translate(20.94736842105263, 20.94736842105263)">
<circle cx="18.94736842105263" cy="18.94736842105263" r="18.94736842105263" fill="white" stroke="black" stroke-width="2" />
</g>
<g transform="translate(2.0, 58.84210526315789)">
<rect x="0" y="0" width="75.78947368421052" height="12.631578947368421" fill="white" stroke="black" stroke-width="2" />
</g>
<g transform="translate(14.631578947368421, 71.47368421052632)">
<path d="M0,75.78947368421052 L50.52631578947368,75.78947368421052 L33.68421052631578,0 L16.84210526315789,0 Z" fill="white" stroke="black" stroke-width="2" />
</g>
<g transform="translate(14.631578947368421, 147.26315789473682)">
<path d="M0,13.26315789473684 A13.26315789473684,13.26315789473684,0,0,1,26.52631578947368,13.26315789473684 A13.26315789473684,13.26315789473684,0,0,1,53.05263157894736,13.26315789473684 L53.05263157894736,62.52631578947368 A13.26315789473684,13.26315789473684,0,0,1,26.52631578947368,62.52631578947368 A13.26315789473684,13.26315789473684,0,0,1,0,62.52631578947368 L0,13.26315789473684 Z" stroke="black" stroke-width="2" fill="none" />
</g>
<g transform="translate(19.052631578947366, 223.05263157894734)">
<rect x="0" y="0" width="41.68421052631579" height="18.94736842105263" fill="white" stroke="black" stroke-width="2" />
</g>
</svg>